<svg width="415" height="281" viewBox="0 0 415 281" fill="none" xmlns="http://www.w3.org/2000/svg">
<path d="M163.809 241.781L161.324 252.961C176.921 250.614 194.863 249.441 215.152 249.441C228.954 249.441 258.215 251.443 302.934 255.445C316.184 256.688 327.019 257.309 335.438 257.309C352.414 257.309 365.871 252.961 375.809 244.266C385.746 235.571 390.715 225.219 390.715 213.211C390.715 206.862 389.266 201.859 386.367 198.201C383.469 194.544 379.95 192.715 375.809 192.715C372.22 192.715 369.322 193.789 367.113 195.937C364.905 198.085 363.801 201.031 363.801 204.774C363.801 207.407 364.698 210.941 366.492 215.375C368.425 220.087 369.391 223.76 369.391 226.393C369.391 230.551 367.562 234.259 363.904 237.516C360.247 240.773 355.796 242.402 350.551 242.402C345.168 242.402 335.783 240.815 322.395 237.641C306.936 234.052 296.102 231.809 289.891 230.912C283.68 230.015 276.917 229.566 269.602 229.566C257.87 229.566 242.135 231.705 222.398 235.984C227.919 229.635 232.612 221.63 236.477 211.969C241.874 198.443 249.763 171.046 260.143 129.777C266.787 103.829 272.254 85.1964 276.544 73.879C283.162 57.1784 289.538 44.584 295.673 36.096C301.808 27.6074 307.564 21.845 312.942 18.809C316.803 16.6004 320.732 15.496 324.73 15.496C328.176 15.496 331.726 16.3934 335.379 18.188C339.032 19.982 344.168 23.7774 350.787 29.574C356.716 34.9567 361.748 37.648 365.884 37.648C369.054 37.648 371.777 36.475 374.052 34.129C376.327 31.7824 377.465 28.953 377.465 25.641C377.465 19.7057 373.738 13.9777 366.285 8.45703C358.832 2.93636 349.653 0.176025 338.75 0.176025C321.773 0.176025 304.969 6.24903 288.338 18.395C271.707 30.5404 257.801 49.173 246.621 74.293C239.306 90.9937 231.162 118.322 222.191 156.277C215.428 184.986 210.08 203.929 206.146 213.107C202.213 222.286 197.796 228.669 192.896 232.258C187.997 235.847 178.301 239.021 163.809 241.781ZM195.381 81.332H206.147C209.046 57.7307 211.323 41.9617 212.979 34.025C214.635 26.089 216.981 17.6354 220.018 8.66403C214.773 7.97403 208.562 6.93904 201.385 5.55904C188.825 2.93637 178.266 1.62503 169.709 1.62503C152.595 1.62503 137.309 5.3887 123.852 12.916C110.395 20.444 99.4567 30.5624 91.038 43.271C82.6187 55.9797 78.409 68.618 78.409 81.186C78.409 87.4014 79.444 93.6517 81.514 99.937C83.5847 106.222 86.7593 112.473 91.038 118.688C94.074 122.971 101.458 130.914 113.19 142.516C125.06 154.395 132.72 162.682 136.17 167.379C141.139 174.287 144.555 180.468 146.418 185.923C148.281 191.378 149.213 196.869 149.213 202.394C149.213 218.555 141.829 233.301 127.061 246.63C112.293 259.96 95.0403 266.625 75.303 266.625C68.6783 266.625 62.571 265.279 56.981 262.588C51.391 259.897 47.0087 256.446 43.834 252.236C40.66 248.027 37.9687 241.229 35.76 231.844C33.828 224.115 31.8957 219.146 29.963 216.938C26.927 213.211 23.0627 211.348 18.37 211.348C13.8153 211.348 9.77801 213.349 6.25801 217.352C2.73868 221.354 0.979004 226.392 0.979004 232.465C0.979004 243.782 7.70734 254.548 21.164 264.762C34.6213 274.975 51.1493 280.082 70.748 280.082C90.6233 280.082 109.498 275.558 127.371 266.51C145.245 257.462 158.771 245.963 167.95 232.012C177.128 218.061 181.717 203.558 181.717 188.503C181.717 178.281 178.689 167.783 172.634 157.01C166.578 146.237 153.848 131.319 134.443 112.257C123.846 101.621 116.999 93.333 113.902 87.393C110.805 81.4524 109.256 74.8224 109.256 67.503C109.256 53.8284 114.901 41.5004 126.192 30.519C137.483 19.5377 150.702 14.047 165.847 14.047C175.623 14.047 183.369 17.118 189.085 23.26C194.801 29.402 197.659 37.7867 197.659 48.414C197.659 55.8674 196.9 66.84 195.381 81.332Z" fill="#6C5CE7"/>
<path d="M217.196 85.4766L217.881 86.1797C219.334 84.668 220.319 83.9121 220.834 83.9121C221.127 83.9121 221.274 84.0645 221.274 84.3691C221.274 84.6504 220.975 86.0332 220.377 88.5176L217.196 101.859C216.949 102.879 216.624 103.588 216.22 103.986C215.816 104.385 215.168 104.631 214.278 104.725L214.049 105.604C215.819 105.451 217.26 105.375 218.373 105.375C219.451 105.375 220.934 105.451 222.821 105.604L223.049 104.725C221.432 104.537 220.371 104.297 219.867 104.004C219.539 103.816 219.375 103.506 219.375 103.072C219.375 102.85 219.422 102.563 219.516 102.211L221.018 96.4102C221.861 96.8672 222.704 97.0957 223.547 97.0957C225.69 97.0957 227.646 95.8184 229.414 93.2637C231.183 90.709 232.067 88.0137 232.067 85.1777C232.067 84.0411 231.862 83.1915 231.451 82.6289C231.041 82.0665 230.537 81.7852 229.94 81.7852C229.026 81.7852 228.018 82.1426 226.916 82.8574C226.26 83.2793 225.035 84.3867 223.242 86.1797C223.641 84.8438 223.878 83.9971 223.954 83.6396C224.031 83.2822 224.069 82.9336 224.069 82.5938C224.069 82.3126 223.984 82.0987 223.814 81.9521C223.644 81.8057 223.412 81.7324 223.119 81.7324C222.346 81.7324 221.432 82.0371 220.377 82.6465C219.323 83.2559 218.262 84.1992 217.196 85.4766ZM215.438 82.2773H212.935L211.02 89.502C210.646 90.8848 209.855 92.1182 208.649 93.2021C207.443 94.2861 206.513 94.8281 205.857 94.8281C205.67 94.8281 205.497 94.7401 205.339 94.564C205.181 94.388 205.102 94.1769 205.102 93.9305C205.102 93.5316 205.477 91.9064 206.227 89.0548C207.071 85.8864 207.492 83.8973 207.492 83.0876C207.492 82.6535 207.405 82.3337 207.229 82.1283C207.053 81.923 206.824 81.8203 206.543 81.8203C206.039 81.8203 205.374 82.0401 204.548 82.4795C203.722 82.919 202.524 83.8418 200.953 85.248L201.727 85.8633C202.606 85.0313 203.227 84.5068 203.59 84.29C203.953 84.0732 204.24 83.9648 204.451 83.9648C204.686 83.9648 204.803 84.1291 204.803 84.4576C204.803 85.0208 204.41 86.7165 203.625 89.5445C203.004 91.7741 202.617 93.2585 202.465 93.9978C202.36 94.5258 202.307 95.0186 202.307 95.4763C202.307 96.063 202.424 96.4913 202.658 96.7612C202.892 97.0311 203.214 97.166 203.624 97.166C204.374 97.166 205.258 96.8672 206.277 96.2695C207.81 95.3672 209.098 94.3184 210.141 93.123C209.887 94.1426 209.76 94.957 209.76 95.5664C209.76 96.0938 209.892 96.501 210.156 96.7881C210.419 97.0753 210.739 97.2188 211.114 97.2188C212.227 97.2188 213.961 95.9942 216.317 93.5449L215.737 92.8945C214.658 93.9844 213.926 94.6641 213.539 94.9336C213.27 95.1094 213.035 95.1973 212.836 95.1973C212.707 95.1973 212.59 95.1387 212.485 95.0215C212.379 94.9043 212.326 94.7344 212.326 94.5117C212.326 94.0188 212.813 91.9885 213.785 88.4209L215.438 82.2773ZM224.286 95.8652C223.315 95.8652 222.367 95.4024 221.442 94.4766L222.379 90.6621C222.741 89.1621 223.127 88.1074 223.537 87.498C224.11 86.6543 224.94 85.8047 226.027 84.9492C226.729 84.3984 227.36 84.123 227.922 84.123C228.425 84.123 228.825 84.2959 229.123 84.6416C229.421 84.9874 229.571 85.4942 229.571 86.1621C229.571 88.2481 229.041 90.3867 227.982 92.5781C226.923 94.7695 225.691 95.8652 224.286 95.8652Z" fill="#6C5CE7"/>
<path d="M390.414 262.603H387.795L390.098 253.023C391.211 248.272 391.94 245.345 392.286 244.242C392.632 243.139 393.048 242.23 393.534 241.514C394.021 240.798 394.63 240.159 395.362 239.596C396.095 239.033 396.886 238.601 397.735 238.302C398.585 238.003 399.332 237.854 399.977 237.854C400.586 237.854 401.04 237.971 401.339 238.205C401.638 238.439 401.787 238.75 401.787 239.137C401.787 239.465 401.652 239.746 401.383 239.98C401.114 240.215 400.774 240.332 400.365 240.332C399.85 240.332 399.071 240.244 398.029 240.068C397.69 239.998 397.391 239.963 397.134 239.963C396.771 239.963 396.428 240.092 396.106 240.351C395.784 240.609 395.498 241.071 395.246 241.735C394.994 242.399 394.64 243.777 394.183 245.869L392.921 251.475C394.047 250.198 395.214 249.214 396.422 248.523C397.336 248.008 398.21 247.75 399.043 247.75C399.629 247.75 400.125 247.97 400.53 248.409C400.934 248.849 401.137 249.402 401.137 250.07C401.137 251.324 400.486 252.443 399.185 253.428C397.885 254.412 395.898 254.939 393.227 255.01C394.129 255.409 394.85 255.846 395.389 256.321C395.928 256.796 396.458 257.453 396.979 258.292C397.501 259.131 398.172 260.537 398.992 262.508C399.965 264.855 400.867 266.415 401.699 267.19C402.52 267.964 403.422 268.352 404.406 268.352C404.98 268.352 405.455 268.226 405.83 267.974C406.205 267.722 406.393 267.467 406.393 267.209C406.393 267.045 406.334 266.822 406.217 266.541C406.088 266.236 406.023 265.979 406.023 265.768C406.023 265.498 406.129 265.258 406.34 265.047C406.551 264.836 406.797 264.73 407.078 264.73C407.406 264.73 407.687 264.862 407.922 265.126C408.156 265.39 408.273 265.738 408.273 266.172C408.273 267.016 407.887 267.766 407.113 268.422C406.34 269.078 405.332 269.406 404.09 269.406C402.812 269.406 401.67 269.084 400.662 268.438C399.654 267.793 398.711 266.761 397.832 265.341C397.328 264.52 396.449 262.649 395.195 259.727C394.61 258.343 394.084 257.305 393.616 256.612C393.253 256.073 392.756 255.539 392.124 255.011L390.414 262.603ZM386.529 240.262C386.893 240.262 387.191 240.382 387.426 240.622C387.66 240.862 387.777 241.17 387.777 241.545C387.777 242.061 387.599 242.515 387.241 242.907C386.884 243.3 386.482 243.496 386.037 243.496C385.686 243.496 385.393 243.373 385.158 243.127C384.924 242.881 384.807 242.559 384.807 242.16C384.807 241.633 384.977 241.185 385.316 240.815C385.656 240.446 386.061 240.262 386.529 240.262ZM379.621 251.898L378.848 251.301C380.018 250.012 381.086 249.095 382.052 248.55C383.018 248.005 383.84 247.732 384.519 247.732C384.893 247.732 385.18 247.814 385.379 247.978C385.578 248.143 385.677 248.365 385.677 248.646C385.677 248.986 385.297 250.428 384.538 252.971C383.299 257.131 382.68 259.639 382.68 260.494C382.68 260.658 382.721 260.796 382.803 260.907C382.885 261.019 382.973 261.074 383.066 261.074C383.441 261.074 384.402 260.348 385.949 258.894L386.635 259.562C385.029 261.074 383.857 262.041 383.119 262.463C382.381 262.885 381.777 263.096 381.309 263.096C380.898 263.096 380.573 262.967 380.333 262.709C380.093 262.451 379.973 262.094 379.973 261.637C379.973 260.172 380.852 256.592 382.609 250.896C382.691 250.627 382.732 250.387 382.732 250.176C382.732 249.941 382.627 249.824 382.416 249.824C382.182 249.824 381.915 249.918 381.616 250.105C381.317 250.293 380.652 250.891 379.621 251.898ZM405.935 263.06C407.986 263.06 410.447 261.695 413.318 258.965L412.738 258.191C411.25 259.305 410.119 260.043 409.346 260.406C408.771 260.676 408.244 260.81 407.764 260.81C407.26 260.81 406.876 260.646 406.612 260.318C406.349 259.99 406.217 259.41 406.217 258.578C406.217 258.004 406.27 257.4 406.375 256.768C408.602 255.76 410.055 255.063 410.734 254.676C412.094 253.879 413.037 253.111 413.564 252.373C414.092 251.635 414.355 250.885 414.355 250.123C414.355 249.396 414.136 248.825 413.696 248.409C413.257 247.993 412.621 247.785 411.789 247.785C409.41 247.785 407.365 249.197 405.654 252.021C404.131 254.506 403.369 257.002 403.369 259.51C403.369 260.752 403.589 261.654 404.028 262.217C404.468 262.779 405.103 263.06 405.935 263.06ZM410.84 252.918C409.891 253.891 408.473 254.799 406.586 255.643C406.809 254.307 407.189 252.994 407.728 251.705C408.103 250.826 408.566 250.17 409.117 249.736C409.527 249.408 409.949 249.244 410.383 249.244C410.805 249.244 411.147 249.394 411.411 249.692C411.675 249.991 411.807 250.393 411.807 250.896C411.807 251.564 411.484 252.238 410.84 252.918ZM392.291 254.271C393.865 254.283 395.14 254.131 396.113 253.814C397.087 253.498 397.781 253.076 398.195 252.549C398.609 252.021 398.816 251.447 398.816 250.826C398.816 250.381 398.696 250.023 398.457 249.754C398.217 249.484 397.927 249.35 397.588 249.35C396.488 249.35 394.804 250.576 392.534 253.029L392.291 254.271Z" fill="#6C5CE7"/>
</svg>
