<?xml version="1.0" encoding="utf-8"?>
<svg width="484px" height="485px" viewBox="0 0 484 485" version="1.1" xmlns:xlink="http://www.w3.org/1999/xlink" xmlns="http://www.w3.org/2000/svg">
  <desc>Created with Lunacy</desc>
  <defs>
    <rect width="484.00003" height="484.00003" id="artboard_1" />
    <clipPath id="clip_1">
      <use xlink:href="#artboard_1" clip-rule="evenodd" />
    </clipPath>
  </defs>
  <g id="Artboard-2" clip-path="url(#clip_1)">
    <g id="SL" fill="#580DD6" transform="translate(-85 -55)">
      <path d="M281.809 378.781L279.324 389.961Q302.719 386.441 333.152 386.441C346.954 386.441 376.215 388.443 420.934 392.445Q440.809 394.309 453.438 394.309Q478.902 394.309 493.809 381.266Q508.715 368.223 508.715 350.211Q508.715 340.688 504.367 335.201Q500.02 329.715 493.809 329.715Q488.426 329.715 485.113 332.937Q481.801 336.159 481.801 341.774Q481.801 345.724 484.492 352.375Q487.391 359.443 487.391 363.393Q487.391 369.63 481.904 374.516Q476.418 379.402 468.551 379.402Q460.477 379.402 440.395 374.641Q417.207 369.258 407.891 367.912Q398.574 366.566 387.602 366.566Q370.004 366.566 340.398 372.984Q348.68 363.461 354.477 348.969Q362.573 328.68 378.143 266.777Q388.109 227.855 394.544 210.879Q404.471 185.828 413.673 173.096Q422.875 160.363 430.942 155.809Q436.733 152.496 442.73 152.496Q447.899 152.496 453.379 155.188Q458.859 157.879 468.787 166.574Q477.68 174.648 483.884 174.648Q488.639 174.648 492.052 171.129Q495.465 167.609 495.465 162.641Q495.465 153.738 484.285 145.457Q473.105 137.176 456.75 137.176Q431.285 137.176 406.338 155.395Q381.391 173.613 364.621 211.293Q353.648 236.344 340.191 293.277Q330.047 336.34 324.146 350.107Q318.246 363.875 310.896 369.258Q303.547 374.641 281.809 378.781ZM313.381 218.332L324.147 218.332Q328.495 182.93 330.979 171.025Q333.463 159.121 338.018 145.664Q330.151 144.629 319.385 142.559Q300.545 138.625 287.709 138.625Q262.038 138.625 241.852 149.916Q221.666 161.208 209.038 180.271Q196.409 199.334 196.409 218.186Q196.409 227.509 199.514 236.937Q202.62 246.365 209.038 255.688Q213.592 262.113 231.19 279.516Q248.995 297.334 254.17 304.379Q261.623 314.741 264.418 322.923Q267.213 331.106 267.213 339.394Q267.213 363.636 245.061 383.63Q222.909 403.625 193.303 403.625Q183.366 403.625 174.981 399.588Q166.596 395.551 161.834 389.236Q157.073 382.922 153.76 368.844Q150.862 357.25 147.963 353.938Q143.409 348.348 136.37 348.348Q129.538 348.348 124.258 354.352Q118.979 360.355 118.979 369.465Q118.979 386.441 139.164 401.762Q159.35 417.082 188.748 417.082Q218.561 417.082 245.371 403.51Q272.182 389.938 285.95 369.012Q299.717 348.086 299.717 325.503Q299.717 310.17 290.634 294.01Q281.55 277.85 252.443 249.257Q236.547 233.303 231.902 224.393Q227.256 215.482 227.256 204.503Q227.256 183.991 244.192 167.519Q261.129 151.047 283.847 151.047Q298.511 151.047 307.085 160.26Q315.659 169.473 315.659 185.414Q315.659 196.594 313.381 218.332Z" />
    </g>
    <g id="up" fill="#580DD6" transform="translate(231.00024 146)">
      <path d="M19.1953 21.4766L19.8809 22.1797Q22.0605 19.9121 22.834 19.9121Q23.2734 19.9121 23.2734 20.3691Q23.2734 20.791 22.377 24.5176L19.1953 37.8594Q18.8262 39.3887 18.2197 39.9863Q17.6133 40.584 16.2773 40.7246L16.0488 41.6035Q18.7031 41.375 20.373 41.375Q21.9902 41.375 24.8203 41.6035L25.0488 40.7246Q22.623 40.4434 21.8672 40.0039Q21.375 39.7227 21.375 39.0723Q21.375 38.7383 21.5156 38.2109L23.0177 32.4102Q24.2825 33.0957 25.5471 33.0957Q28.7617 33.0957 31.414 29.2637Q34.0664 25.4316 34.0664 21.1777Q34.0664 19.4727 33.4512 18.6289Q32.8359 17.7852 31.9395 17.7852Q30.5684 17.7852 28.916 18.8574Q27.9316 19.4902 25.2422 22.1797Q25.8398 20.1758 25.9541 19.6396Q26.0684 19.1035 26.0684 18.5938Q26.0684 18.1719 25.8135 17.9521Q25.5586 17.7324 25.1191 17.7324Q23.959 17.7324 22.377 18.6465Q20.7949 19.5605 19.1953 21.4766ZM17.4375 18.2773L14.9345 18.2773L13.0202 25.502Q12.4582 27.5762 10.6492 29.2021Q8.84015 30.8281 7.85687 30.8281Q7.57562 30.8281 7.33859 30.564Q7.10156 30.3 7.10156 29.9305Q7.10156 29.3321 8.22656 25.0548Q9.49219 20.3021 9.49219 19.0876Q9.49219 18.4364 9.22852 18.1283Q8.96484 17.8203 8.54297 17.8203Q7.78711 17.8203 6.54785 18.4795Q5.30859 19.1387 2.95313 21.248L3.72656 21.8633Q5.04492 20.6152 5.58984 20.29Q6.13477 19.9648 6.45117 19.9648Q6.80273 19.9648 6.80273 20.4576Q6.80273 21.3024 5.625 25.5445Q4.69336 28.8888 4.46484 29.9978Q4.30664 30.7897 4.30664 31.4763Q4.30664 32.3563 4.65793 32.7612Q5.00922 33.166 5.6239 33.166Q6.74808 33.166 8.27628 32.2695Q10.5771 30.916 12.1404 29.123Q11.7598 30.6523 11.7598 31.5664Q11.7598 32.3574 12.1553 32.7881Q12.5508 33.2188 13.1133 33.2188Q14.7832 33.2188 18.3164 29.5449L17.7363 28.8945Q16.1191 30.5293 15.5391 30.9336Q15.1348 31.1973 14.8359 31.1973Q14.6426 31.1973 14.4844 31.0215Q14.3262 30.8457 14.3262 30.5117Q14.3262 29.7723 15.7852 24.4209L17.4375 18.2773ZM26.2862 31.8652Q24.8291 31.8652 23.4421 30.4766L24.3787 26.6621Q24.9225 24.4121 25.5363 23.498Q26.3958 22.2324 28.0272 20.9492Q29.0794 20.123 29.9215 20.123Q30.6757 20.123 31.123 20.6416Q31.5703 21.1602 31.5703 22.1621Q31.5703 25.291 29.9816 28.5781Q28.3928 31.8652 26.2862 31.8652Z" />
    </g>
    <g id="ike" fill="#580DD6" transform="translate(409 312)">
      <path d="M14.4141 32.6035L11.7949 32.6035L14.0977 23.0234Q15.7676 15.8961 16.2861 14.2418Q16.8047 12.5875 17.5342 11.514Q18.2637 10.4405 19.3623 9.59581Q20.4609 8.7511 21.7354 8.30231Q23.0098 7.85352 23.9766 7.85352Q24.8906 7.85352 25.3389 8.20508Q25.7871 8.55664 25.7871 9.13672Q25.7871 9.62891 25.3832 9.98047Q24.9793 10.332 24.3647 10.332Q23.592 10.332 22.0292 10.0684Q21.52 9.96289 21.1336 9.96289Q20.5892 9.96289 20.1064 10.3507Q19.6235 10.7385 19.2458 11.7347Q18.8682 12.7309 18.1835 15.8691L16.9206 21.4749Q18.6095 19.5597 20.4217 18.5232Q21.7939 17.75 23.043 17.75Q23.9227 17.75 24.5297 18.4092Q25.1367 19.0684 25.1367 20.0703Q25.1367 21.9512 23.1855 23.4277Q21.2344 24.9043 17.2266 25.0098Q18.5801 25.6082 19.3887 26.3211Q20.1973 27.034 20.9795 28.2925Q21.7617 29.551 22.9922 32.5079Q24.4512 36.0282 25.6992 37.1898Q26.9297 38.3516 28.4063 38.3516Q29.2676 38.3516 29.8301 37.9736Q30.3926 37.5957 30.3926 37.209Q30.3926 36.9629 30.2168 36.541Q30.0234 36.084 30.0234 35.7676Q30.0234 35.3633 30.3398 35.0469Q30.6563 34.7305 31.0781 34.7305Q31.5703 34.7305 31.9219 35.126Q32.2734 35.5215 32.2734 36.1719Q32.2734 37.4375 31.1133 38.4219Q29.9531 39.4063 28.0898 39.4063Q26.1738 39.4063 24.6621 38.4384Q23.1504 37.4705 21.832 35.341Q21.0762 34.1092 19.1953 29.7273Q18.3178 27.6506 17.616 26.6124Q17.0719 25.8027 16.1244 25.0109L14.4141 32.6035ZM10.5293 10.2617Q11.0742 10.2617 11.4258 10.6221Q11.7773 10.9824 11.7773 11.5449Q11.7773 12.3184 11.2412 12.9072Q10.7051 13.4961 10.0371 13.4961Q9.50977 13.4961 9.1582 13.127Q8.80664 12.7578 8.80664 12.1602Q8.80664 11.3691 9.31641 10.8154Q9.82617 10.2617 10.5293 10.2617ZM3.62109 21.8984L2.84766 21.3008Q4.60327 19.3672 6.05182 18.5498Q7.50037 17.7324 8.51852 17.7324Q9.08047 17.7324 9.37889 17.9785Q9.67731 18.2246 9.67731 18.6465Q9.67731 19.1563 8.53775 22.9707Q6.67969 29.2109 6.67969 30.4941Q6.67969 30.7402 6.80273 30.9072Q6.92578 31.0742 7.06641 31.0742Q7.62891 31.0742 9.94922 28.8945L10.6348 29.5625Q8.22656 31.8301 7.11914 32.4629Q6.01172 33.0957 5.30859 33.0957Q4.69336 33.0957 4.33301 32.709Q3.97266 32.3223 3.97266 31.6367Q3.97266 29.4395 6.60938 20.8965Q6.73242 20.4922 6.73242 20.1758Q6.73242 19.8242 6.41602 19.8242Q6.06445 19.8242 5.61621 20.1055Q5.16797 20.3867 3.62109 21.8984ZM29.9355 33.0605Q33.0117 33.0605 37.3184 28.9648L36.7383 28.1914Q34.5059 29.8613 33.3457 30.4063Q32.4844 30.8105 31.7637 30.8105Q31.0078 30.8105 30.6123 30.3184Q30.2168 29.8262 30.2168 28.5781Q30.2168 27.7168 30.375 26.7676Q33.7148 25.2559 34.7344 24.6758Q36.7734 23.4805 37.5645 22.373Q38.3555 21.2656 38.3555 20.123Q38.3555 19.0332 37.6963 18.4092Q37.0371 17.7852 35.7891 17.7852Q32.2207 17.7852 29.6543 22.0215Q27.3691 25.748 27.3691 29.5098Q27.3691 31.373 28.0283 32.2168Q28.6875 33.0605 29.9355 33.0605ZM34.8398 22.918Q33.416 24.377 30.5859 25.6426Q30.9199 23.6387 31.7285 21.7051Q32.291 20.3867 33.1172 19.7363Q33.7324 19.2441 34.3828 19.2441Q35.0156 19.2441 35.4111 19.6924Q35.8066 20.1406 35.8066 20.8965Q35.8066 21.8984 34.8398 22.918ZM16.2908 24.2715Q18.6526 24.2891 20.1135 23.8145Q21.5744 23.3398 22.1954 22.5488Q22.8164 21.7578 22.8164 20.8262Q22.8164 20.1582 22.4566 19.7539Q22.0968 19.3496 21.5881 19.3496Q19.9385 19.3496 16.5341 23.0295L16.2908 24.2715Z" />
    </g>
  </g>
</svg>